<mxfile host="Electron" agent="Mozilla/5.0 (Windows NT 10.0; Win64; x64) AppleWebKit/537.36 (KHTML, like Gecko) draw.io/26.0.16 Chrome/132.0.6834.196 Electron/34.2.0 Safari/537.36" version="26.0.16">
  <diagram name="Page-1" id="bqijU4pDrjHMh_VQwGwY">
    <mxGraphModel dx="787" dy="1378" grid="1" gridSize="10" guides="1" tooltips="1" connect="1" arrows="1" fold="1" page="1" pageScale="1" pageWidth="3300" pageHeight="4681" math="0" shadow="0">
      <root>
        <mxCell id="0" />
        <mxCell id="1" parent="0" />
        <mxCell id="BJy933XRifL6u_DPfnhz-1" value="" style="ellipse;whiteSpace=wrap;html=1;aspect=fixed;fillColor=#333333;" vertex="1" parent="1">
          <mxGeometry x="320" y="360" width="640" height="640" as="geometry" />
        </mxCell>
        <mxCell id="BJy933XRifL6u_DPfnhz-2" value="" style="ellipse;whiteSpace=wrap;html=1;aspect=fixed;fillColor=#999999;" vertex="1" parent="1">
          <mxGeometry x="405" y="445" width="470" height="470" as="geometry" />
        </mxCell>
        <mxCell id="BJy933XRifL6u_DPfnhz-3" value="" style="ellipse;whiteSpace=wrap;html=1;aspect=fixed;" vertex="1" parent="1">
          <mxGeometry x="480" y="520" width="320" height="320" as="geometry" />
        </mxCell>
        <mxCell id="BJy933XRifL6u_DPfnhz-4" value="" style="ellipse;whiteSpace=wrap;html=1;aspect=fixed;fillColor=#4D4D4D;" vertex="1" parent="1">
          <mxGeometry x="540" y="580" width="200" height="200" as="geometry" />
        </mxCell>
        <mxCell id="BJy933XRifL6u_DPfnhz-5" value="" style="group" vertex="1" connectable="0" parent="1">
          <mxGeometry x="618.98" y="610" width="42.04" height="100" as="geometry" />
        </mxCell>
        <mxCell id="BJy933XRifL6u_DPfnhz-6" value="" style="ellipse;whiteSpace=wrap;html=1;" vertex="1" parent="BJy933XRifL6u_DPfnhz-5">
          <mxGeometry x="7.147757892874035" y="86.4476685190069" width="27.017275286081503" height="13.552331480993137" as="geometry" />
        </mxCell>
        <mxCell id="BJy933XRifL6u_DPfnhz-7" value="" style="shape=trapezoid;perimeter=trapezoidPerimeter;whiteSpace=wrap;html=1;fixedSize=1;size=7.751736111110972;strokeColor=none;" vertex="1" parent="BJy933XRifL6u_DPfnhz-5">
          <mxGeometry x="7.147757892874035" y="39.0145083355309" width="27.017275286081503" height="54.20932592397255" as="geometry" />
        </mxCell>
        <mxCell id="BJy933XRifL6u_DPfnhz-8" value="" style="ellipse;whiteSpace=wrap;html=1;" vertex="1" parent="BJy933XRifL6u_DPfnhz-5">
          <mxGeometry x="11.671462923587235" y="36.983333333333334" width="17.507194385380853" height="3.391666666666667" as="geometry" />
        </mxCell>
        <mxCell id="BJy933XRifL6u_DPfnhz-9" value="" style="endArrow=none;html=1;rounded=0;entryX=0;entryY=0.5;entryDx=0;entryDy=0;exitX=0;exitY=1;exitDx=0;exitDy=0;" edge="1" parent="BJy933XRifL6u_DPfnhz-5" source="BJy933XRifL6u_DPfnhz-7" target="BJy933XRifL6u_DPfnhz-8">
          <mxGeometry width="50" height="50" relative="1" as="geometry">
            <mxPoint x="-8.612319357340246" y="49.17875694627573" as="sourcePoint" />
            <mxPoint x="2.644878678527107" y="32.23834259503434" as="targetPoint" />
          </mxGeometry>
        </mxCell>
        <mxCell id="BJy933XRifL6u_DPfnhz-10" value="" style="endArrow=none;html=1;rounded=0;entryX=1;entryY=0.5;entryDx=0;entryDy=0;exitX=1;exitY=0.5;exitDx=0;exitDy=0;" edge="1" parent="BJy933XRifL6u_DPfnhz-5" source="BJy933XRifL6u_DPfnhz-6" target="BJy933XRifL6u_DPfnhz-8">
          <mxGeometry width="50" height="50" relative="1" as="geometry">
            <mxPoint x="9.399197500047466" y="79.67150277851033" as="sourcePoint" />
            <mxPoint x="16.153516321567892" y="42.06378291875429" as="targetPoint" />
          </mxGeometry>
        </mxCell>
        <mxCell id="BJy933XRifL6u_DPfnhz-11" value="" style="ellipse;whiteSpace=wrap;html=1;aspect=fixed;" vertex="1" parent="BJy933XRifL6u_DPfnhz-5">
          <mxGeometry x="17.66085513857053" y="13.867140847687079" width="5.797216899093364" height="5.797216899093364" as="geometry" />
        </mxCell>
        <mxCell id="BJy933XRifL6u_DPfnhz-12" value="" style="endArrow=none;html=1;rounded=0;exitX=0.5;exitY=0.6;exitDx=0;exitDy=0;exitPerimeter=0;" edge="1" parent="BJy933XRifL6u_DPfnhz-5">
          <mxGeometry width="50" height="50" relative="1" as="geometry">
            <mxPoint x="20.61136674377123" y="39.0145083355309" as="sourcePoint" />
            <mxPoint x="20.65639553591475" y="20.38005254916527" as="targetPoint" />
          </mxGeometry>
        </mxCell>
        <mxCell id="BJy933XRifL6u_DPfnhz-13" value="" style="group" vertex="1" connectable="0" parent="BJy933XRifL6u_DPfnhz-5">
          <mxGeometry width="22.735037153237567" height="37.155975477056195" as="geometry" />
        </mxCell>
        <mxCell id="BJy933XRifL6u_DPfnhz-14" value="" style="verticalLabelPosition=bottom;verticalAlign=top;html=1;shape=mxgraph.basic.arc;startAngle=0.8674269139058159;endAngle=0.10890889862491068;rotation=-90;" vertex="1" parent="BJy933XRifL6u_DPfnhz-13">
          <mxGeometry x="10.143298290218253" y="9.403115793943565" width="13.508637643040752" height="18.34974388916904" as="geometry" />
        </mxCell>
        <mxCell id="BJy933XRifL6u_DPfnhz-15" value="" style="verticalLabelPosition=bottom;verticalAlign=top;html=1;shape=mxgraph.basic.arc;startAngle=0.8542633587329961;endAngle=0.13618962129579204;rotation=-90;" vertex="1" parent="BJy933XRifL6u_DPfnhz-13">
          <mxGeometry x="3.388979468697876" y="7.338305156718593" width="20.26295646456113" height="22.474057167122275" as="geometry" />
        </mxCell>
        <mxCell id="BJy933XRifL6u_DPfnhz-16" value="" style="verticalLabelPosition=bottom;verticalAlign=top;html=1;shape=mxgraph.basic.arc;startAngle=0.8048130263879473;endAngle=0.18374868358867524;rotation=-90;" vertex="1" parent="BJy933XRifL6u_DPfnhz-13">
          <mxGeometry x="-2.6054784854014574" y="4.095119297221252" width="23.640115875321317" height="28.965736882613665" as="geometry" />
        </mxCell>
        <mxCell id="BJy933XRifL6u_DPfnhz-17" value="" style="group;rotation=-90;" vertex="1" connectable="0" parent="BJy933XRifL6u_DPfnhz-5">
          <mxGeometry x="17.662543718275817" width="22.735037153237567" height="37.155975477056195" as="geometry" />
        </mxCell>
        <mxCell id="BJy933XRifL6u_DPfnhz-18" value="" style="verticalLabelPosition=bottom;verticalAlign=top;html=1;shape=mxgraph.basic.arc;startAngle=0.8674269139058159;endAngle=0.10890889862491068;rotation=-270;" vertex="1" parent="BJy933XRifL6u_DPfnhz-17">
          <mxGeometry x="-1.0131478232280564" y="9.554393694100163" width="13.508637643040752" height="18.34974388916904" as="geometry" />
        </mxCell>
        <mxCell id="BJy933XRifL6u_DPfnhz-19" value="" style="verticalLabelPosition=bottom;verticalAlign=top;html=1;shape=mxgraph.basic.arc;startAngle=0.8542633587329961;endAngle=0.13618962129579204;rotation=-270;" vertex="1" parent="BJy933XRifL6u_DPfnhz-17">
          <mxGeometry x="-1.0131478232280564" y="7.431195095411239" width="20.26295646456113" height="22.474057167122275" as="geometry" />
        </mxCell>
        <mxCell id="BJy933XRifL6u_DPfnhz-20" value="" style="verticalLabelPosition=bottom;verticalAlign=top;html=1;shape=mxgraph.basic.arc;startAngle=0.8048130263879473;endAngle=0.18374868358867524;rotation=-270;" vertex="1" parent="BJy933XRifL6u_DPfnhz-17">
          <mxGeometry x="1.688579705380094" y="4.246397197377852" width="23.640115875321317" height="28.965736882613665" as="geometry" />
        </mxCell>
        <mxCell id="BJy933XRifL6u_DPfnhz-21" value="" style="verticalLabelPosition=bottom;verticalAlign=top;html=1;shadow=0;dashed=0;strokeWidth=1;shape=mxgraph.android.phone2;strokeColor=#B3B3B3;fillColor=#FFFFFF;gradientColor=none;" vertex="1" parent="1">
          <mxGeometry x="690" y="600" width="40" height="80" as="geometry" />
        </mxCell>
        <mxCell id="BJy933XRifL6u_DPfnhz-22" value="" style="verticalLabelPosition=bottom;verticalAlign=top;html=1;shadow=0;dashed=0;strokeWidth=1;shape=mxgraph.android.phone2;strokeColor=#B3B3B3;fillColor=#FFFFFF;" vertex="1" parent="1">
          <mxGeometry x="490" y="640" width="40" height="80" as="geometry" />
        </mxCell>
        <mxCell id="BJy933XRifL6u_DPfnhz-23" value="" style="verticalLabelPosition=bottom;verticalAlign=top;html=1;shadow=0;dashed=0;strokeWidth=1;shape=mxgraph.android.phone2;strokeColor=#B3B3B3;fillColor=#FFFFFF;" vertex="1" parent="1">
          <mxGeometry x="630" y="440" width="40" height="80" as="geometry" />
        </mxCell>
        <mxCell id="BJy933XRifL6u_DPfnhz-24" value="" style="verticalLabelPosition=bottom;verticalAlign=top;html=1;shadow=0;dashed=0;strokeWidth=1;shape=mxgraph.android.phone2;strokeColor=#B3B3B3;fillColor=#FFFFFF;" vertex="1" parent="1">
          <mxGeometry x="390" y="470" width="40" height="80" as="geometry" />
        </mxCell>
      </root>
    </mxGraphModel>
  </diagram>
</mxfile>
